<svg height="100" width="100" xmlns="http://www.w3.org/2000/svg"><path d="m76.8 7.9-12.9 11.6v6.4l1.5.8 1.4-5.1 10-8.6zm20.3 9.3-13.7 11.6v5.8l5 2.1-13.7 13v18.8l15.9-17.3-1.5-7.9 10.2-10.2zm-29.6 10.2-14.4 12.3v14.4l4.4-12.3 10-8.7z" fill="#333"/><path d="m63.9 19.5-15.8-7.2 14.4-11.14 14.3 6.74m6.6 20.9-16.6-7.2 13.6-11.5 16.7 7.1m-22.4 32.5-17.2-7.9 14.4-12.3 16.5 7.2m-35.3 3-15.8-7.2 13.6-12.3 16.6 7.2" fill="#999"/><path d="m65.4 26.7 1.4-5.1 16.6 7.2v5.8l-11.5-5.1-4.4 3.6v-5.7zm-23.1.7 5.8-15.1 15.8 7.2v6.4l-13-5.7zm-10.6 18.7 5.6-13.6 15.8 7.2v14.4l4.4-12.3 17.2 7.9v18.8z" fill="#ccc"/><path d="m63.9 19.5-15.8-7.2 14.4-11.14 14.3 6.74" fill="#00c617"/><path d="m76.2 36.1c-1.5-2.2-4.3-2.2-5.1-.8-.7 1.4 3.6 2.9 1.5 5-.7.8-4.3 0-5.1-2.1m13.7-25.2-2.9 5 4.4-.8v3.7l5.7-3.7m-25.2-7.8.7 2.9m2.2-5.81c-1.4-1.44-4.4-1.44-6.5.71-1.5 1.5 0 3.6 2.9 3.6 2.2 0 5-2.1 3.6-4.31zm-16.6 20.91 4.4 2.1m-8-.7 8.6-2.9-2.1 6.6" fill="none" stroke="#111" stroke-width="1.5"/><path d="m42.3 27.4 5.8-15.1 14.4-11.14 14.3 6.74v5.1m-24.4 43.9 5.1-15.1 14.4-12.3 16.5 7.2 2.2 14.5-15.9 17.3-43-22.4 5.6-13.6 13.6-12.3 16.6 7.2v5.7m-2.1-6.4 1.4-5.1 13.6-11.5 16.7 7.1 2.2 15.9-10.2 10.2" fill="none" stroke="#222"/><path d="m19.9 46.4c-18.982-11.2.8-24.1-3.7-32.9-5.6-7-11.77-4.91-16.214-6.37l-.325-2.99c10.189.55 16.439 2.55 19.539 8.56 6.3 8.1-15.28 21.9 4.1 32 0 .6-3.4 1.7-3.4 1.7z" fill="#444" stroke="#333"/><path d="m44.9 46.4c10.3 5.1 17.1 15.4 20.5 25.6 1.2 5.7 2.3 17.1-8 21.6-9.1 4.6-18.2 5.7-29.5-2.2-9.1-8-18.65-19.4-22.05-23.9-2.28-3.5-3.3-5.7-2.85-10.3 0-3.4 1.82-4.5 8.4-7.4 15.3-6.9 19.9-5.8 25.6-5.8 4.5 0 7.9 2.4 7.9 2.4z" fill="#444" stroke="#333" stroke-width="1.5"/><path d="m55.2 53.8c1.1 3.4-13.7 8-13.7 8s-8-12-18.2-16.5c0 0 8-1.3 12.5-1.3 3.4 0 6.9.7 12.5 4.7 3.5 2.8 6.9 5.1 6.9 5.1zm-48.33-2.3c7.33 2.3 13.03 10.3 15.33 12.5 2.2 2.3 3.4 2.3 6.8 2.3 5.7-1.1 12.5-4.5 12.5-4.5s-9.1-12-19.3-16.5c-3.4 1.1-10.8 4.5-15.33 6.2z" fill="#626262" stroke="#ccc"/><path d="m8.5 52c6.5 3 11.5 10 14.5 12 2 2 3 2 6 2 6-1 12-4 12-4s-8-12-18-16c-4 1-10 4-14.5 6z" fill="#00c617"/><path d="m26.7 47.5c-2.3 2.3 5.7 8.6 8 6.3s-4.6-7.4-8-6.3z" fill="#333" stroke="#ccc" stroke-width="1.5"/><path d="m44.9 46.4c10.3 5.1 17.1 15.4 20.5 25.6 1.2 5.7 2.3 17.1-8 21.6-9.1 4.6-18.2 5.7-29.5-2.2-9.1-8-18.65-19.4-22.05-23.9-2.28-3.5-3.3-5.7-2.85-10.3 0-3.4 1.82-4.5 8.4-7.4 15.3-6.9 19.9-5.8 25.6-5.8 4.5 0 7.9 2.4 7.9 2.4z" fill="none" stroke="#222" stroke-width="1.5"/><path d="m25.6 69.7c7.9 16 26.2 23.9 38.7 5.7-10.3 21.6-34.2 14.8-38.7-5.7z" fill="#ccc"/></svg>